<svg xmlns="http://www.w3.org/2000/svg" width="52" height="48" viewBox="0 0 52 48"><defs><style>.a{fill:none;}.b{fill:#2d3847;}.c{fill:#fff;}.d{fill:#f99d1c;}</style></defs><g transform="translate(-290 -1209)"><rect class="a" width="52" height="48" transform="translate(290 1209)"/><g transform="translate(-122.681 1043.861)"><path class="b" d="M461.729,181.112,439.9,168.469a2.455,2.455,0,0,0-2.458,0l-21.9,12.645a2.455,2.455,0,0,0-1.227,2.126v26.21a2.455,2.455,0,0,0,2.455,2.455H460.5a2.455,2.455,0,0,0,2.456-2.455V183.237A2.455,2.455,0,0,0,461.729,181.112Z" transform="translate(0 0)"/><g transform="translate(417.144 171.255)"><path class="c" d="M456.625,254.841v2.278h1.445v-2.278h2.84v6.61h-2.84v-2.313h-1.445v2.313h-2.839v-6.61Z" transform="translate(-447.346 -237.597)"/><path class="c" d="M525.392,254.841l1.739,1.878,1.745-1.878H530.9v6.61h-2.84V258.07l-.933.92-.933-.92v3.381h-2.84v-6.61Z" transform="translate(-500.58 -237.597)"/><path class="c" d="M566.141,254.841V256.5H563.3v.89h2.3v1.516h-2.3v.886h2.844v1.659h-5.68v-6.61Z" transform="translate(-528.969 -237.597)"/><path class="c" d="M495.934,290.265v6.61h-2.907v-6.61Z" transform="translate(-477.372 -264.702)"/><path class="c" d="M559.052,293.57a4.143,4.143,0,0,0,1.286-3.3h-2.991c-.014,1.533-.71,2.307-1.634,2.341v-2.341h-2.836v6.61h2.836v-2.341c.924.035,1.636.767,1.706,2.341h3.063A4.658,4.658,0,0,0,559.052,293.57Z" transform="translate(-523.166 -264.702)"/><path class="c" d="M491.683,253.964a3.52,3.52,0,1,0,3.745,3.513A3.634,3.634,0,0,0,491.683,253.964Zm0,4.5a.984.984,0,1,1,.968-.984A.976.976,0,0,1,491.683,258.461Z" transform="translate(-473.478 -236.926)"/><path class="c" d="M519.4,293.223a1.07,1.07,0,0,1-1,.614.953.953,0,1,1,0-1.892,1.069,1.069,0,0,1,1,.621l2.138-1.474a3.89,3.89,0,0,0-3.277-1.714,3.525,3.525,0,1,0,0,7.026,3.89,3.89,0,0,0,3.275-1.712Z" transform="translate(-493.761 -264.023)"/><path class="c" d="M458.075,290.267v0h-4.289v6.61h2.836v-1.515h1.454v0a2.56,2.56,0,1,0,0-5.091Zm-.776,3.261h-.677V292.1h.677a.718.718,0,1,1,0,1.432Z" transform="translate(-447.346 -264.702)"/><path class="d" d="M467.932,193.011H448.995a1.412,1.412,0,0,0,0,2.822h17.526v20.575H429.185V195.237l19.38-11.189a1.412,1.412,0,0,0-1.424-2.437L427.062,193.2a1.419,1.419,0,0,0-.7,1.218v23.4a1.432,1.432,0,0,0,1.411,1.411h40.158a1.432,1.432,0,0,0,1.411-1.411v-23.4A1.431,1.431,0,0,0,467.932,193.011Z" transform="translate(-426.363 -181.411)"/></g></g></g></svg>